<?xml version="1.0" encoding="UTF-8" standalone="no"?>
<svg
   version="1.0"
   width="64px"
   height="64px"
   viewBox="0 0 640 640"
   preserveAspectRatio="xMidYMid meet"
   id="svg3"
   sodipodi:docname="icon_svg_minimal.svg"
   xml:space="preserve"
   inkscape:version="1.3 (0e150ed6c4, 2023-07-21)"
   xmlns:inkscape="http://www.inkscape.org/namespaces/inkscape"
   xmlns:sodipodi="http://sodipodi.sourceforge.net/DTD/sodipodi-0.dtd"
   xmlns="http://www.w3.org/2000/svg"
   xmlns:svg="http://www.w3.org/2000/svg"><defs
     id="defs3" /><sodipodi:namedview
     id="namedview3"
     pagecolor="#ffffff"
     bordercolor="#666666"
     borderopacity="1.0"
     inkscape:showpageshadow="2"
     inkscape:pageopacity="0.0"
     inkscape:pagecheckerboard="0"
     inkscape:deskcolor="#d1d1d1"
     inkscape:zoom="11.980734"
     inkscape:cx="48.411058"
     inkscape:cy="30.089977"
     inkscape:window-width="2256"
     inkscape:window-height="1398"
     inkscape:window-x="-11"
     inkscape:window-y="-11"
     inkscape:window-maximized="1"
     inkscape:current-layer="layer2" /><g
     inkscape:groupmode="layer"
     id="layer3"
     inkscape:label="Layer 3"
     style="display:inline" /><g
     inkscape:groupmode="layer"
     id="layer1"
     inkscape:label="Layer 1"
     style="display:inline" /><g
     inkscape:groupmode="layer"
     id="layer2"
     inkscape:label="Layer 2"
     style="display:inline"><path
       d="M 384.83847,56.398911 C 285.83344,53.253497 189.97683,114.86301 148.59646,204.33544 101.7776,299.23959 119.06448,421.05623 190.90885,498.88352 256.30656,573.28045 367.09721,603.68096 460.75057,570.21128 569.80836,535.29166 644.50865,421.16073 637.22746,307.59597 633.92061,199.63401 557.68827,97.265512 453.16944,67.139356 431.04118,60.403593 407.96341,56.800641 384.83847,56.398911 Z M 284.60814,130.21509 c 52.68556,0.66126 106.03292,-2.68889 157.99598,7.31645 49.46538,19.19259 85.63361,63.83363 107.20192,111.03039 16.47152,52.89512 1.59943,110.17248 16.83535,163.3442 0.36225,33.3336 -28.2378,58.41868 -58.09728,67.63339 -26.60663,9.59636 -53.99024,20.79825 -82.59345,20.92973 -21.82158,-20.97386 -40.88006,5.19219 -65.59256,8.49277 -24.71251,3.30059 -49.76156,-0.23143 -62.69771,-15.38553 -18.34389,5.09327 -47.48372,-13.85835 -61.40186,-25.41302 -23.83811,-21.94253 -10.16474,-65.14102 15.6619,-83.2092 -1.79077,-19.12456 -6.23811,-48.0671 -12.71007,-66.48346 -25.48758,-15.32057 -53.36285,-44.55448 -43.81717,-76.9774 10.97676,-31.45281 42.21039,-48.83987 61.02465,-75.0709 9.67208,-11.84747 18.77632,-24.15322 28.1903,-36.20742 z"
       style="display:inline;fill:#2db2d1;stroke-width:0.983301"
       id="path23"
       sodipodi:nodetypes="ccccccccccccczccccccc" /><path
       style="fill:#a987dd;stroke-width:0.983301"
       d="m 501.0387,275.01136 c 0.72791,-0.29129 1.59759,-0.25547 1.93264,0.0797 0.33507,0.33506 -0.26048,0.57338 -1.32342,0.5296 -1.17465,-0.0484 -1.41359,-0.2873 -0.60922,-0.60918 z"
       id="path36" /><path
       style="fill:#a987dd;stroke-width:0.983301"
       d="m 559.79058,349.72847 c 0.0484,-1.17466 0.28732,-1.41359 0.60921,-0.60921 0.29126,0.7279 0.25545,1.59757 -0.0797,1.93264 -0.33507,0.33506 -0.57337,-0.26048 -0.5296,-1.32343 z"
       id="path33" /><path
       style="fill:#a987dd;stroke-width:0.983301"
       d="m 562.00227,362.41664 c 0,-2.49563 0.19666,-3.51658 0.43699,-2.26875 0.24033,1.2478 0.24033,3.28967 0,4.53747 -0.24033,1.24782 -0.43699,0.22688 -0.43699,-2.26872 z"
       id="path32" /><path
       style="display:inline;fill:none;stroke:#2db2d1;stroke-width:27.532;stroke-linecap:butt;stroke-linejoin:miter;stroke-dasharray:none;stroke-opacity:1"
       d="m 447.86326,518.1941 c -43.08569,-24.37419 -42.45308,-49.00808 -43.33191,-59.58135 -1.11667,-13.43496 3.22043,-30.17282 8.37094,-37.17679 6.16384,-8.38198 15.02255,-13.84452 25.1128,-17.97287 0,0 14.34858,35.8036 39.30751,19.25639 8.95632,-5.93784 7.46278,-14.55274 11.86367,-23.09369 -3.94168,-22.17722 -26.60526,-41.33916 -41.32302,-58.94471 -8.45734,-10.1233 -20.0965,-17.38293 -31.76031,-24.6204 0,0 -28.0005,-1.90666 -37.42298,-8.12471 0,0 -40.65695,2.49065 -51.70283,-6.64751 -43.50748,-35.99334 -32.25414,-51.43598 -43.08569,-49.48699 -18.48131,3.32544 -35.92527,19.39565 -36.43818,24.86659 l -4.80098,51.21043 c 9.26343,44.83474 23.46541,107.04886 29.48112,127.37913 6.01571,20.33028 17.02731,50.19324 30.87446,63.99853"
       id="path4"
       sodipodi:nodetypes="csscscccssssczc" /></g></svg>
